<svg id="Layer_1" data-name="Layer 1" xmlns="http://www.w3.org/2000/svg" viewBox="0 0 187.42 87.52"><defs><style>.cls-1,.cls-2{fill:none;stroke-linecap:round;stroke-miterlimit:10;stroke-width:6.9px;}.cls-1{stroke:#58595b;}.cls-2{stroke:#4e64ae;}</style></defs><path class="cls-1" d="M210.73,118.72H191.32a2.91,2.91,0,0,1-2.36-1.46L149.1,38.64c-.4-.8-.73-.72-.73.18v78.27c0,.89-.33,1-.74.17L107.78,38.64c-.41-.8-.74-.72-.74.18v78.27a1.64,1.64,0,0,1-1.63,1.63H94.21a1.64,1.64,0,0,1-1.63-1.63V94" transform="translate(-26.76 -34.64)"/><path class="cls-2" d="M77.6,85.37H91a1.64,1.64,0,0,0,1.63-1.63V38.82c0-.9-.33-1-.74-.18L52,117.26a2.93,2.93,0,0,1-2.37,1.46H30.21" transform="translate(-26.76 -34.64)"/></svg>