<svg xmlns="http://www.w3.org/2000/svg" width="75.397" height="75.401" viewBox="0 0 75.397 75.401">
  <path id="layer2" d="M49.974,11.773l3.941-3.941L75.4,29.315l-3.941,3.941ZM58.818,28.21,27.7,59.338a9.835,9.835,0,0,0,.019,13.87l1.9,1.9L67.658,37.054ZM23.918,77a15.185,15.185,0,0,1-4.184-13.5,15.287,15.287,0,0,1-2.759.258A15.092,15.092,0,0,1,6.236,59.308L5.178,58.251,0,83.233l24.969-5.176ZM46.179,15.575,8.131,53.618l1.9,1.9a9.821,9.821,0,0,0,13.889,0l31.1-31.1Z" transform="translate(0 -7.832)" fill="#0161f3"/>
</svg>
