<svg id="Orion_source-code_1_" data-name="Orion_source-code (1)" xmlns="http://www.w3.org/2000/svg" width="94.251" height="75.401" viewBox="0 0 94.251 75.401">
  <path id="layer2" d="M2,22V75.409H96.251V22ZM32.7,57.635a3.141,3.141,0,1,1-4.732,4.133l-12.8-14.656L27.971,32.5A3.142,3.142,0,1,1,32.7,36.642L23.511,47.118ZM58.326,32.592,45.759,64.009a3.143,3.143,0,0,1-5.836-2.334L52.49,30.258a3.143,3.143,0,1,1,5.836,2.334ZM70.4,61.766a3.141,3.141,0,1,1-4.732-4.133l9.19-10.515L65.671,36.636A3.142,3.142,0,1,1,70.4,32.5L83.2,47.105Z" transform="translate(-2 -0.008)" fill="#0161f3"/>
  <path id="layer1" d="M2,8V23.709H96.251V8Zm9.425,11a3.142,3.142,0,1,1,3.142-3.142A3.142,3.142,0,0,1,11.425,19Zm9.425,0a3.142,3.142,0,1,1,3.142-3.142A3.142,3.142,0,0,1,20.85,19Zm9.425,0a3.142,3.142,0,1,1,3.142-3.142A3.142,3.142,0,0,1,30.275,19Z" transform="translate(-2 -8)" fill="#0161f3"/>
</svg>
